 <svg version="1.0" xmlns="http://www.w3.org/2000/svg" width="700.000000pt" height="700.000000pt" viewBox="0 0 700.000000 700.000000" preserveAspectRatio="xMidYMid meet">
<metadata>
Created by potrace 1.12, written by Peter Selinger 2001-2015
</metadata>
<g transform="translate(0.000000,700.000000) scale(0.100000,-0.100000)" fill="#000000" stroke="none">
<path d="M2266 6016 c-85 -36 -139 -86 -183 -171 -38 -72 -44 -205 -13 -290
21 -58 51 -89 1023 -1055 l1001 -995 -983 -990 c-1114 -1123 -1046 -1044
-1046 -1205 0 -76 3 -93 33 -152 40 -82 111 -149 190 -178 46 -17 74 -21 142
-18 156 6 64 -77 1322 1188 1281 1289 1193 1188 1193 1359 0 166 95 60 -1194
1340 -1279 1271 -1181 1183 -1341 1189 -72 2 -94 -1 -144 -22z"></path>
</g>
</svg>