<?xml version="1.0" encoding="UTF-8"?>
<!DOCTYPE svg PUBLIC "-//W3C//DTD SVG 1.1//EN" "http://www.w3.org/Graphics/SVG/1.1/DTD/svg11.dtd">
<!-- Creator: CorelDRAW 2021 (64-Bit) -->
<svg xmlns="http://www.w3.org/2000/svg" xml:space="preserve" width="512px" height="452px" version="1.1" shape-rendering="geometricPrecision" text-rendering="geometricPrecision" image-rendering="optimizeQuality" fill-rule="evenodd" clip-rule="evenodd"
viewBox="0 0 512 451.8"
 xmlns:xlink="http://www.w3.org/1999/xlink"
 xmlns:xodm="http://www.corel.com/coreldraw/odm/2003">
 <g id="Layer_x0020_1">
  <metadata id="CorelCorpID_0Corel-Layer"/>
  <path fill="black" d="M90.55 23.08c19.83,-11.42 44.52,-13.62 66.89,-4.13l6.85 -11.86c3.93,-6.79 12.64,-9.11 19.43,-5.17 6.8,3.93 9.12,12.64 5.18,19.43l-7.77 13.47c12.86,12.76 20.58,29.72 21.99,47.49l16.44 -4.16c7.62,-1.91 15.35,2.73 17.26,10.35 1.91,7.63 -2.73,15.36 -10.36,17.27l-25.29 6.41c-0.62,0.15 -1.25,0.26 -1.87,0.33 -1.02,2.99 -2.25,5.95 -3.68,8.87 -13.4,27.33 -18.06,51.98 -15.2,73.57l19.12 -5.95c7.5,-2.33 15.48,1.86 17.82,9.36 2.33,7.5 -1.86,15.49 -9.36,17.82l-19.43 6.05c8.74,18.53 23.74,36.06 44.01,52.12l17.21 -10.78c6.65,-4.15 15.4,-2.13 19.55,4.51 4.15,6.64 2.13,15.4 -4.51,19.55l-11.06 6.92c18.79,25.95 19.5,62.1 -0.67,89.13 -1.08,1.44 -2.2,2.83 -3.35,4.17l0.33 0.6c5.12,9.58 10.33,19.3 16,28.38 4.15,6.67 2.11,15.45 -4.56,19.6 -6.68,4.15 -15.46,2.11 -19.61,-4.56 -4.94,-7.92 -9.92,-17.04 -14.83,-26.2 -24.58,12.55 -55.16,11.05 -78.85,-6.37l-4.64 8.46c-3.78,6.89 -12.44,9.41 -19.33,5.63 -6.89,-3.78 -9.41,-12.44 -5.62,-19.33l7.08 -12.91c-21.73,-19.01 -40.15,-39.83 -54.9,-62.31l-13.06 8.18c-6.64,4.15 -15.4,2.13 -19.55,-4.51 -4.15,-6.64 -2.13,-15.4 4.52,-19.55l13.81 -8.65c-8.36,-16.33 -14.9,-33.44 -19.49,-51.26 -0.32,-1.22 -0.62,-2.44 -0.92,-3.67l-16.87 5.25c-7.5,2.34 -15.48,-1.85 -17.82,-9.35 -2.33,-7.51 1.86,-15.49 9.36,-17.83l20.22 -6.29c-2.84,-23.49 -2.29,-47.64 1.91,-72.32l-23.3 -7.98c-7.44,-2.55 -11.41,-10.66 -8.86,-18.1 2.55,-7.45 10.66,-11.41 18.1,-8.86l20.33 6.97c5.12,-18.38 12.24,-37.02 21.48,-55.86 2.32,-4.71 5.06,-9.06 8.17,-13.05l-10.52 -16.65c-4.18,-6.64 -2.19,-15.42 4.45,-19.6 6.65,-4.18 15.43,-2.19 19.61,4.45l8.16 12.92zm310.39 333.41c-3.01,4.41 -1.89,10.42 2.52,13.44 4.4,3.01 10.42,1.88 13.43,-2.52 3.02,-4.41 1.89,-10.42 -2.52,-13.43 -4.4,-3.02 -10.41,-1.89 -13.43,2.51zm-34.4 -188.28c-4.62,6.76 -2.9,15.98 3.86,20.6 6.75,4.62 15.98,2.9 20.6,-3.86 4.63,-6.75 2.89,-15.98 -3.86,-20.6 -6.76,-4.62 -15.98,-2.89 -20.6,3.86zm-226.38 73.8c7.39,4.26 9.93,13.72 5.66,21.12 -4.27,7.39 -13.73,9.92 -21.12,5.65 -7.4,-4.27 -9.93,-13.72 -5.66,-21.12 4.27,-7.39 13.72,-9.92 21.12,-5.65zm-2.26 -164.43c7.28,4.2 9.78,13.51 5.57,20.79 -4.2,7.27 -13.51,9.77 -20.78,5.56 -7.28,-4.2 -9.77,-13.5 -5.57,-20.78 4.2,-7.28 13.5,-9.77 20.78,-5.57zm9.17 -15.88c16.05,9.27 21.54,29.78 12.28,45.83 -9.26,16.05 -29.78,21.54 -45.83,12.28 -16.05,-9.27 -21.55,-29.78 -12.28,-45.83 9.26,-16.05 29.78,-21.55 45.83,-12.28zm204.73 96.43c-10.19,14.89 -6.38,35.23 8.51,45.42 14.9,10.19 35.24,6.38 45.43,-8.52 10.19,-14.89 6.38,-35.23 -8.52,-45.42 -14.89,-10.19 -35.23,-6.38 -45.42,8.52zm51.46 108.15c-5.77,8.44 -3.61,19.97 4.83,25.74 8.44,5.78 19.97,3.62 25.74,-4.82 5.78,-8.45 3.62,-19.98 -4.82,-25.75 -8.44,-5.78 -19.97,-3.62 -25.75,4.83zm-15.21 81.39c-7.88,11.53 -4.94,27.26 6.59,35.14 11.53,7.89 27.26,4.94 35.14,-6.59 7.89,-11.52 4.94,-27.25 -6.59,-35.14 -11.52,-7.88 -27.25,-4.93 -35.14,6.59zm-188.64 -37.61c8.91,5.14 11.96,16.53 6.81,25.44 -5.14,8.91 -16.53,11.96 -25.44,6.82 -8.91,-5.14 -11.96,-16.53 -6.82,-25.45 5.14,-8.91 16.53,-11.96 25.45,-6.81zm-49.94 -84.19c16.31,9.41 21.9,30.26 12.48,46.57 -9.41,16.3 -30.26,21.89 -46.57,12.47 -16.3,-9.41 -21.89,-30.26 -12.48,-46.56 9.42,-16.31 30.27,-21.9 46.57,-12.48zm-29.82 -66.93c8.3,4.79 11.15,15.41 6.35,23.71 -4.79,8.3 -15.41,11.15 -23.71,6.36 -8.3,-4.8 -11.15,-15.42 -6.36,-23.72 4.8,-8.3 15.42,-11.15 23.72,-6.35zm382.53 130.72c6.05,0.66 10.42,6.11 9.75,12.16 -0.66,6.05 -6.11,10.42 -12.16,9.75l-12.12 -1.37c-2.76,20.42 -8.57,40.91 -17.24,61.24l7.26 5.2c4.95,3.55 6.09,10.44 2.54,15.4 -3.55,4.95 -10.44,6.09 -15.4,2.54l-4.02 -2.88 -0.04 0.09c-10.62,20.27 -31.47,31.69 -52.89,31.24l-0.61 13.79 -0.19 4.44c-0.27,6.07 -5.4,10.79 -11.48,10.53 -6.07,-0.27 -10.79,-5.4 -10.52,-11.48l0.19 -4.44c0.2,-4.67 0.5,-11.38 0.78,-17.59 -1.33,-0.58 -2.65,-1.21 -3.96,-1.89 -23.09,-12.1 -34.7,-37.51 -30.35,-61.87l-17.58 -1.99c-6.05,-0.66 -10.41,-6.11 -9.74,-12.17 0.66,-6.04 6.11,-10.41 12.16,-9.74l23.18 2.62c8.77,-17.97 13.38,-35.2 13.32,-51.05l-15.38 2.25c-6.02,0.88 -11.62,-3.29 -12.5,-9.32 -0.88,-6.03 3.29,-11.63 9.32,-12.51l15.17 -2.22c-5.2,-16.1 -16.73,-31.82 -35.32,-46.47 -1.89,-1.49 -3.66,-3.07 -5.32,-4.73l-21.28 4.29c-5.95,1.19 -11.75,-2.67 -12.94,-8.63 -1.19,-5.95 2.67,-11.75 8.63,-12.94l12.67 -2.56c-5.04,-12.94 -5.36,-27.45 -0.63,-40.74l-9.71 -6.65c-5.03,-3.43 -6.32,-10.29 -2.9,-15.32 3.43,-5.02 10.29,-6.32 15.32,-2.89l8.52 5.84c12.32,-13.97 30.04,-20.71 47.53,-19.56l0.27 -3.52c0.46,-6.07 5.75,-10.63 11.82,-10.18 6.08,0.46 10.63,5.75 10.18,11.82l-0.58 7.65c3.63,1.78 7.14,3.96 10.45,6.57 12.93,10.19 24.28,20.98 34.09,32.26l5.84 -5.53c4.41,-4.19 11.38,-4.02 15.57,0.38 4.2,4.41 4.02,11.38 -0.38,15.58l-7.37 6.98c11.1,15.76 19.5,32.36 25.33,49.63l16.39 -2.4c6.03,-0.88 11.63,3.29 12.51,9.32 0.88,6.02 -3.29,11.63 -9.32,12.51l-13.72 2.01c0.19,0.89 0.38,1.79 0.55,2.69 2.77,14.01 3.93,28.18 3.55,42.42l12.76 1.44z"/>
 </g>
</svg>
